<mxfile host="app.diagrams.net" modified="2022-11-21T09:02:20.180Z" agent="5.0 (Windows NT 10.0; Win64; x64) AppleWebKit/537.36 (KHTML, like Gecko) Chrome/107.0.0.0 Safari/537.36" etag="wyZFpqzcHg69oh2iADJ9" version="20.5.3" type="github">
  <diagram id="ktbCmW9iaioaTO2Uvvg9" name="第 1 页">
    <mxGraphModel dx="807" dy="2361" grid="1" gridSize="10" guides="1" tooltips="1" connect="1" arrows="1" fold="1" page="1" pageScale="1" pageWidth="1200" pageHeight="1600" math="0" shadow="0">
      <root>
        <mxCell id="0" />
        <mxCell id="1" parent="0" />
        <mxCell id="CyOp8zA_nxUJfoZoxCJK-5" value="" style="edgeStyle=orthogonalEdgeStyle;rounded=0;orthogonalLoop=1;jettySize=auto;html=1;" edge="1" parent="1" source="CyOp8zA_nxUJfoZoxCJK-2" target="CyOp8zA_nxUJfoZoxCJK-4">
          <mxGeometry relative="1" as="geometry" />
        </mxCell>
        <mxCell id="CyOp8zA_nxUJfoZoxCJK-2" value="开始" style="strokeWidth=2;html=1;shape=mxgraph.flowchart.start_1;whiteSpace=wrap;" vertex="1" parent="1">
          <mxGeometry x="420" y="-230" width="100" height="60" as="geometry" />
        </mxCell>
        <mxCell id="CyOp8zA_nxUJfoZoxCJK-3" value="结束" style="strokeWidth=2;html=1;shape=mxgraph.flowchart.terminator;whiteSpace=wrap;" vertex="1" parent="1">
          <mxGeometry x="905" y="270" width="100" height="60" as="geometry" />
        </mxCell>
        <mxCell id="CyOp8zA_nxUJfoZoxCJK-7" style="edgeStyle=orthogonalEdgeStyle;rounded=0;orthogonalLoop=1;jettySize=auto;html=1;" edge="1" parent="1" source="CyOp8zA_nxUJfoZoxCJK-4" target="CyOp8zA_nxUJfoZoxCJK-6">
          <mxGeometry relative="1" as="geometry" />
        </mxCell>
        <mxCell id="CyOp8zA_nxUJfoZoxCJK-4" value="定义函数LED_Display&lt;br&gt;(上份实验报告相同，不再赘述)" style="whiteSpace=wrap;html=1;strokeWidth=2;" vertex="1" parent="1">
          <mxGeometry x="410" y="-140" width="120" height="60" as="geometry" />
        </mxCell>
        <mxCell id="CyOp8zA_nxUJfoZoxCJK-10" style="edgeStyle=orthogonalEdgeStyle;rounded=0;orthogonalLoop=1;jettySize=auto;html=1;" edge="1" parent="1" source="CyOp8zA_nxUJfoZoxCJK-6" target="CyOp8zA_nxUJfoZoxCJK-9">
          <mxGeometry relative="1" as="geometry" />
        </mxCell>
        <mxCell id="CyOp8zA_nxUJfoZoxCJK-6" value="声明EEPROM_Write" style="whiteSpace=wrap;html=1;strokeWidth=2;" vertex="1" parent="1">
          <mxGeometry x="410" y="-50" width="120" height="60" as="geometry" />
        </mxCell>
        <mxCell id="CyOp8zA_nxUJfoZoxCJK-12" style="edgeStyle=orthogonalEdgeStyle;rounded=0;orthogonalLoop=1;jettySize=auto;html=1;" edge="1" parent="1" source="CyOp8zA_nxUJfoZoxCJK-9" target="CyOp8zA_nxUJfoZoxCJK-11">
          <mxGeometry relative="1" as="geometry" />
        </mxCell>
        <mxCell id="CyOp8zA_nxUJfoZoxCJK-9" value="声明EEPROM_Read" style="whiteSpace=wrap;html=1;strokeWidth=2;" vertex="1" parent="1">
          <mxGeometry x="410" y="30" width="120" height="60" as="geometry" />
        </mxCell>
        <mxCell id="CyOp8zA_nxUJfoZoxCJK-14" style="edgeStyle=orthogonalEdgeStyle;rounded=0;orthogonalLoop=1;jettySize=auto;html=1;" edge="1" parent="1" source="CyOp8zA_nxUJfoZoxCJK-11" target="CyOp8zA_nxUJfoZoxCJK-13">
          <mxGeometry relative="1" as="geometry" />
        </mxCell>
        <mxCell id="CyOp8zA_nxUJfoZoxCJK-11" value="进入main函数" style="whiteSpace=wrap;html=1;strokeWidth=2;" vertex="1" parent="1">
          <mxGeometry x="410" y="120" width="120" height="60" as="geometry" />
        </mxCell>
        <mxCell id="CyOp8zA_nxUJfoZoxCJK-17" style="edgeStyle=orthogonalEdgeStyle;rounded=0;orthogonalLoop=1;jettySize=auto;html=1;" edge="1" parent="1" source="CyOp8zA_nxUJfoZoxCJK-13" target="CyOp8zA_nxUJfoZoxCJK-16">
          <mxGeometry relative="1" as="geometry" />
        </mxCell>
        <mxCell id="CyOp8zA_nxUJfoZoxCJK-13" value="初始化PORTA，PORTD&lt;br&gt;TRISD = 0；PORTD设置为输出&lt;br&gt;TRISA = 0；PORTA设置为输出&lt;br&gt;PORTA = 0x00；PORTA置零&lt;br&gt;PORTD =0x00；PORTD置零" style="whiteSpace=wrap;html=1;strokeWidth=2;" vertex="1" parent="1">
          <mxGeometry x="367.5" y="210" width="205" height="90" as="geometry" />
        </mxCell>
        <mxCell id="CyOp8zA_nxUJfoZoxCJK-19" style="edgeStyle=orthogonalEdgeStyle;rounded=0;orthogonalLoop=1;jettySize=auto;html=1;" edge="1" parent="1" source="CyOp8zA_nxUJfoZoxCJK-16" target="CyOp8zA_nxUJfoZoxCJK-18">
          <mxGeometry relative="1" as="geometry" />
        </mxCell>
        <mxCell id="CyOp8zA_nxUJfoZoxCJK-16" value="调用EEPROM_Write写入EEPROM&lt;br&gt;&lt;span style=&quot;background-color: initial;&quot;&gt;EEPROM_Write(0x00, 0x08);设置第零位为8&lt;br&gt;&lt;/span&gt;&lt;span style=&quot;background-color: initial;&quot;&gt;EEPROM_Write(0x01, 0x06);&lt;/span&gt;设置第零位为6&lt;br&gt;&lt;span style=&quot;background-color: initial;&quot;&gt;EEPROM_Write(0x02, 0x01);&lt;/span&gt;设置第零位为1" style="whiteSpace=wrap;html=1;strokeWidth=2;" vertex="1" parent="1">
          <mxGeometry x="339.38" y="330" width="261.25" height="80" as="geometry" />
        </mxCell>
        <mxCell id="CyOp8zA_nxUJfoZoxCJK-21" style="edgeStyle=orthogonalEdgeStyle;rounded=0;orthogonalLoop=1;jettySize=auto;html=1;" edge="1" parent="1" source="CyOp8zA_nxUJfoZoxCJK-18" target="CyOp8zA_nxUJfoZoxCJK-20">
          <mxGeometry relative="1" as="geometry" />
        </mxCell>
        <mxCell id="CyOp8zA_nxUJfoZoxCJK-18" value="进入EEPROM_Write" style="whiteSpace=wrap;html=1;strokeWidth=2;" vertex="1" parent="1">
          <mxGeometry x="384.5" y="440" width="171" height="40" as="geometry" />
        </mxCell>
        <mxCell id="CyOp8zA_nxUJfoZoxCJK-25" style="edgeStyle=orthogonalEdgeStyle;rounded=0;orthogonalLoop=1;jettySize=auto;html=1;" edge="1" parent="1" source="CyOp8zA_nxUJfoZoxCJK-20" target="CyOp8zA_nxUJfoZoxCJK-24">
          <mxGeometry relative="1" as="geometry">
            <Array as="points">
              <mxPoint x="630" y="605" />
              <mxPoint x="630" y="-145" />
            </Array>
          </mxGeometry>
        </mxCell>
        <mxCell id="CyOp8zA_nxUJfoZoxCJK-20" value="EEADR = addr;设置写入数据的地址&lt;br&gt;EEDATA = data;设置写入的数据&lt;br&gt;EEPGD = 0;设置使用EEPROM&lt;br&gt;WREN = 1;允许写入数据&lt;span style=&quot;background-color: initial;&quot;&gt;EECON2 = 0x55;&lt;/span&gt;&lt;br&gt;&lt;div&gt;&lt;span style=&quot;background-color: initial;&quot;&gt;EECON2 = 0xAA;&lt;/span&gt;&lt;/div&gt;&lt;div&gt;&lt;span style=&quot;background-color: initial;&quot;&gt;初始化写入&lt;/span&gt;&lt;/div&gt;&lt;div&gt;&lt;span style=&quot;background-color: initial;&quot;&gt;WR = 1开始写入&lt;br&gt;&lt;/span&gt;&lt;/div&gt;&lt;div&gt;&lt;span style=&quot;background-color: initial;&quot;&gt;while(WR == 1);等待写入完成&lt;/span&gt;&lt;/div&gt;&lt;div&gt;&lt;span style=&quot;background-color: initial;&quot;&gt;WREN = 0禁止写入&lt;br&gt;&lt;/span&gt;&lt;/div&gt;" style="whiteSpace=wrap;html=1;strokeWidth=2;" vertex="1" parent="1">
          <mxGeometry x="367.5" y="510" width="205" height="190" as="geometry" />
        </mxCell>
        <mxCell id="CyOp8zA_nxUJfoZoxCJK-27" style="edgeStyle=orthogonalEdgeStyle;rounded=0;orthogonalLoop=1;jettySize=auto;html=1;" edge="1" parent="1" source="CyOp8zA_nxUJfoZoxCJK-24" target="CyOp8zA_nxUJfoZoxCJK-26">
          <mxGeometry relative="1" as="geometry" />
        </mxCell>
        <mxCell id="CyOp8zA_nxUJfoZoxCJK-24" value="声明变量n1, n2, n3" style="whiteSpace=wrap;html=1;strokeWidth=2;" vertex="1" parent="1">
          <mxGeometry x="710" y="-160" width="170" height="40" as="geometry" />
        </mxCell>
        <mxCell id="CyOp8zA_nxUJfoZoxCJK-29" style="edgeStyle=orthogonalEdgeStyle;rounded=0;orthogonalLoop=1;jettySize=auto;html=1;" edge="1" parent="1" source="CyOp8zA_nxUJfoZoxCJK-26" target="CyOp8zA_nxUJfoZoxCJK-28">
          <mxGeometry relative="1" as="geometry" />
        </mxCell>
        <mxCell id="CyOp8zA_nxUJfoZoxCJK-26" value="调用EEPROM_Read读取EEPROM&lt;br&gt;&lt;span style=&quot;background-color: initial;&quot;&gt;n1 = EEPROM_Read(0x00);读取第0位&lt;br&gt;&lt;/span&gt;&lt;span style=&quot;background-color: initial;&quot;&gt;n2 = EEPROM_Read(0x01);&lt;/span&gt;读取第0位&lt;span style=&quot;background-color: initial;&quot;&gt;&lt;br&gt;&lt;/span&gt;&lt;span style=&quot;background-color: initial;&quot;&gt;n3 = EEPROM_Read(0x02);&lt;/span&gt;读取第0位&lt;span style=&quot;background-color: initial;&quot;&gt;&lt;br&gt;&lt;/span&gt;" style="whiteSpace=wrap;html=1;strokeWidth=2;" vertex="1" parent="1">
          <mxGeometry x="670" y="-90" width="250" height="90" as="geometry" />
        </mxCell>
        <mxCell id="CyOp8zA_nxUJfoZoxCJK-31" style="edgeStyle=orthogonalEdgeStyle;rounded=0;orthogonalLoop=1;jettySize=auto;html=1;" edge="1" parent="1" source="CyOp8zA_nxUJfoZoxCJK-28" target="CyOp8zA_nxUJfoZoxCJK-30">
          <mxGeometry relative="1" as="geometry" />
        </mxCell>
        <mxCell id="CyOp8zA_nxUJfoZoxCJK-28" value="&lt;span style=&quot;background-color: initial;&quot;&gt;进入EEPROM_Read&lt;br&gt;&lt;/span&gt;" style="whiteSpace=wrap;html=1;strokeWidth=2;" vertex="1" parent="1">
          <mxGeometry x="710" y="30" width="170" height="55" as="geometry" />
        </mxCell>
        <mxCell id="CyOp8zA_nxUJfoZoxCJK-37" value="" style="edgeStyle=orthogonalEdgeStyle;rounded=0;orthogonalLoop=1;jettySize=auto;html=1;" edge="1" parent="1" source="CyOp8zA_nxUJfoZoxCJK-30" target="CyOp8zA_nxUJfoZoxCJK-36">
          <mxGeometry relative="1" as="geometry" />
        </mxCell>
        <mxCell id="CyOp8zA_nxUJfoZoxCJK-30" value="&lt;span style=&quot;background-color: initial;&quot;&gt;&lt;div&gt;EEADR = addr;设置所读数据地&lt;/div&gt;&lt;div&gt;&lt;span style=&quot;background-color: initial;&quot;&gt;EEPGD = 0;设置使用EEPROM&lt;/span&gt;&lt;/div&gt;&lt;div&gt;&lt;span style=&quot;background-color: initial;&quot;&gt;RD = 1;开始读取&lt;/span&gt;&lt;/div&gt;&lt;div&gt;&lt;span style=&quot;background-color: initial;&quot;&gt;while(RD == 1);等待读取结束&lt;/span&gt;&lt;/div&gt;&lt;div&gt;&lt;span style=&quot;background-color: initial;&quot;&gt;return EEDATA;返回所读值&lt;/span&gt;&lt;/div&gt;&lt;/span&gt;" style="whiteSpace=wrap;html=1;strokeWidth=2;" vertex="1" parent="1">
          <mxGeometry x="685" y="113" width="220" height="97" as="geometry" />
        </mxCell>
        <mxCell id="CyOp8zA_nxUJfoZoxCJK-41" value="" style="edgeStyle=orthogonalEdgeStyle;rounded=0;orthogonalLoop=1;jettySize=auto;html=1;" edge="1" parent="1" source="CyOp8zA_nxUJfoZoxCJK-36" target="CyOp8zA_nxUJfoZoxCJK-40">
          <mxGeometry relative="1" as="geometry" />
        </mxCell>
        <mxCell id="CyOp8zA_nxUJfoZoxCJK-43" style="edgeStyle=orthogonalEdgeStyle;rounded=0;orthogonalLoop=1;jettySize=auto;html=1;entryX=0;entryY=0.5;entryDx=0;entryDy=0;entryPerimeter=0;" edge="1" parent="1" source="CyOp8zA_nxUJfoZoxCJK-36" target="CyOp8zA_nxUJfoZoxCJK-3">
          <mxGeometry relative="1" as="geometry" />
        </mxCell>
        <mxCell id="CyOp8zA_nxUJfoZoxCJK-36" value="while（1）" style="rhombus;whiteSpace=wrap;html=1;strokeWidth=2;" vertex="1" parent="1">
          <mxGeometry x="755" y="260" width="80" height="80" as="geometry" />
        </mxCell>
        <mxCell id="CyOp8zA_nxUJfoZoxCJK-45" style="edgeStyle=orthogonalEdgeStyle;rounded=0;orthogonalLoop=1;jettySize=auto;html=1;entryX=0.5;entryY=0;entryDx=0;entryDy=0;" edge="1" parent="1" source="CyOp8zA_nxUJfoZoxCJK-40" target="CyOp8zA_nxUJfoZoxCJK-36">
          <mxGeometry relative="1" as="geometry">
            <Array as="points">
              <mxPoint x="690" y="440" />
              <mxPoint x="690" y="230" />
              <mxPoint x="795" y="230" />
            </Array>
          </mxGeometry>
        </mxCell>
        <mxCell id="CyOp8zA_nxUJfoZoxCJK-40" value="&lt;div&gt;调用LED_Display利用视觉暂留进行显示&lt;/div&gt;&lt;div&gt;LED_Display(1, n1);&lt;/div&gt;&lt;div&gt;LED_Display(2, n2);&lt;/div&gt;&lt;div&gt;LED_Display(3, n3);&lt;/div&gt;&lt;div&gt;LED_Display(5, n1);&lt;/div&gt;&lt;div&gt;LED_Display(6, n2);&lt;/div&gt;" style="whiteSpace=wrap;html=1;strokeWidth=2;" vertex="1" parent="1">
          <mxGeometry x="723" y="370" width="145" height="120" as="geometry" />
        </mxCell>
        <mxCell id="CyOp8zA_nxUJfoZoxCJK-42" value="是" style="text;html=1;align=center;verticalAlign=middle;resizable=0;points=[];autosize=1;strokeColor=none;fillColor=none;" vertex="1" parent="1">
          <mxGeometry x="795" y="340" width="40" height="30" as="geometry" />
        </mxCell>
        <mxCell id="CyOp8zA_nxUJfoZoxCJK-44" value="否" style="text;html=1;align=center;verticalAlign=middle;resizable=0;points=[];autosize=1;strokeColor=none;fillColor=none;" vertex="1" parent="1">
          <mxGeometry x="830" y="260" width="40" height="30" as="geometry" />
        </mxCell>
      </root>
    </mxGraphModel>
  </diagram>
</mxfile>
